<svg xmlns="http://www.w3.org/2000/svg" viewBox="0 0 264 264" color="#FF6600"><title>BEARCAMP RIDGE - BRANDY PEAK</title><g fill="none" stroke="currentColor" stroke-width="3" stroke-linecap="round" stroke-linejoin="round"><path d="M18 155L65 135 106 149 154 127 207 150 245 132M19 180L69 160 109 176 154 158 246 177M62 246L88 207 120 198 146 167 168 192 189 205 218 245M88 207L115 222 120 198M146 167L151 208 168 192M151 208L172 230 189 205M103 244L115 222M177 245L172 230"/><g transform="translate(30 224) scale(0.6)"><path d="M0 0V-70M-21-15L0-50 21-15M-16-34L0-70 16-34"/></g><g data-trail-sign="outz-v1"><path d="M16 12H232L248 47.0 232 82H16ZM45 82v25M54 82v25"/><g fill="currentColor" stroke="none" font-family="Arial,sans-serif" font-size="22" font-weight="700"><text x="126" y="37" text-anchor="middle">Bearcamp Ridge -</text><text x="126" y="60" text-anchor="middle">Brandy Peak</text></g></g></g></svg>