<svg xmlns="http://www.w3.org/2000/svg" viewBox="0 0 264 264" color="#FF6600"><title>BARKLOW MOUNTAIN</title><g fill="none" stroke="currentColor" stroke-width="3" stroke-linecap="round" stroke-linejoin="round"><path d="M17 155L64 129 92 145 144 108 194 146 245 130M17 177Q91 159 141 179T245 171M51 236L78 206 113 201 137 217 168 203 220 233M94 225l15-9 18 11-12 9ZM153 222l13-11 16 5-5 15ZM188 247V224M188 237Q171 233 175 221Q187 215 194 227Q202 211 214 223Q218 238 201 239"/><g transform="translate(33 205) scale(0.65)"><path d="M0 0V-70M-21-15L0-50 21-15M-16-34L0-70 16-34"/></g><g data-trail-sign="outz-v1"><path d="M16 12H232L248 35.5 232 59H16ZM45 59v25M54 59v25"/><g fill="currentColor" stroke="none" font-family="Arial,sans-serif" font-size="22" font-weight="700"><text x="126" y="37" text-anchor="middle">Barklow Mountain</text></g></g></g></svg>