<svg xmlns="http://www.w3.org/2000/svg" viewBox="0 0 264 264"><title>Beverly Dunes</title><desc>Outzide atv line illustration with dunes motifs. Decorative artwork, not a navigation map.</desc><g fill="none" stroke="#D95757" stroke-width="3" stroke-linecap="round" stroke-linejoin="round"><path d="M14 105Q68 41 130 98T250 96M19 126Q82 75 141 117T251 120M41 104q25-21 62-17M163 112q37-18 66-12"/><path d="M22 232q62-27 99-8t119-6M32 208l35-12M205 197l29 5M33 170l12-3M205 220l18 2"/><g transform="translate(0.75 0)"><ellipse cx="77" cy="185" rx="20" ry="26"/><ellipse cx="180" cy="180" rx="20" ry="26"/><ellipse cx="77" cy="185" rx="9" ry="14"/><ellipse cx="180" cy="180" rx="9" ry="14"/><path d="m64 162-9-11 23-20 40 4 17-13 42 14 15 19-8 4M87 158l20 22 50-6 13-23M101 169l10-16 39-4 14 12M83 136l8-17 28 3M124 134l9-22-10-13h-15M126 102l20-4M105 157l-3-15 26 2M145 136l23 6M78 167l6 4M60 179l5 1M61 195l5-2M80 207l-1-5M164 162l6 4M162 177l5 1M166 197l4-4M181 202l-1-5"/></g></g></svg>
